<svg width="194" height="28" viewBox="0 0 194 28" fill="none" xmlns="http://www.w3.org/2000/svg">
<path opacity="0.5" d="M15 15.1865V0L29 9.8135V25L15 15.1865Z" fill="#1570EF"/>
<path opacity="0.5" d="M45 15.1865V0L31 9.8135V25L45 15.1865Z" fill="#1570EF"/>
<path opacity="0.5" d="M0 9.8135V25L14 15.1865V0L0 9.8135Z" fill="#6938EF"/>
<path d="M66.4538 5.27273H70.8153L75.4219 16.5114H75.6179L80.2244 5.27273H84.5859V22H81.1555V11.1126H81.0167L76.6879 21.9183H74.3519L70.0231 11.0717H69.8842V22H66.4538V5.27273ZM93.0864 26.9659C91.9593 26.9659 90.9927 26.8107 90.1869 26.5004C89.3865 26.1954 88.7494 25.7789 88.2757 25.2507C87.8019 24.7225 87.4943 24.129 87.3527 23.4702L90.5708 23.0373C90.6688 23.2878 90.824 23.5219 91.0363 23.7397C91.2487 23.9575 91.5291 24.1317 91.8776 24.2624C92.2315 24.3986 92.6617 24.4666 93.1681 24.4666C93.9249 24.4666 94.5484 24.2815 95.0384 23.9112C95.5339 23.5464 95.7817 22.9338 95.7817 22.0735V19.7784H95.6347C95.4822 20.1269 95.2535 20.4563 94.9486 20.7667C94.6437 21.0771 94.2516 21.3303 93.7725 21.5263C93.2933 21.7223 92.7216 21.8203 92.0573 21.8203C91.1153 21.8203 90.2577 21.6025 89.4845 21.1669C88.7167 20.7259 88.1041 20.0534 87.6468 19.1495C87.1948 18.2402 86.9688 17.0913 86.9688 15.7028C86.9688 14.2816 87.2003 13.0946 87.6631 12.1417C88.1259 11.1888 88.7412 10.4755 89.509 10.0018C90.2822 9.52805 91.1289 9.29119 92.0491 9.29119C92.7515 9.29119 93.3396 9.41098 93.8133 9.65057C94.287 9.88471 94.6682 10.1787 94.9568 10.5327C95.2508 10.8812 95.4768 11.2242 95.6347 11.5618H95.7654V9.45455H99.2203V22.1225C99.2203 23.1897 98.9589 24.0827 98.4362 24.8015C97.9134 25.5202 97.1892 26.0593 96.2636 26.4187C95.3434 26.7835 94.2843 26.9659 93.0864 26.9659ZM93.1599 19.2067C93.7207 19.2067 94.1945 19.0678 94.5811 18.7901C94.9731 18.507 95.2726 18.104 95.4795 17.5813C95.6919 17.0531 95.798 16.4215 95.798 15.6864C95.798 14.9513 95.6946 14.3143 95.4877 13.7752C95.2807 13.2307 94.9813 12.8087 94.5892 12.5092C94.1972 12.2098 93.7207 12.06 93.1599 12.06C92.5882 12.06 92.1063 12.2152 91.7142 12.5256C91.3222 12.8305 91.0254 13.2552 90.824 13.7997C90.6225 14.3442 90.5218 14.9731 90.5218 15.6864C90.5218 16.4106 90.6225 17.0368 90.824 17.565C91.0309 18.0877 91.3276 18.4934 91.7142 18.782C92.1063 19.0651 92.5882 19.2067 93.1599 19.2067ZM101.989 22V9.45455H105.305V11.668H105.452C105.714 10.9329 106.149 10.353 106.759 9.92827C107.369 9.50355 108.098 9.29119 108.948 9.29119C109.808 9.29119 110.541 9.50627 111.145 9.93643C111.749 10.3611 112.152 10.9383 112.354 11.668H112.484C112.74 10.9492 113.203 10.3748 113.873 9.9446C114.548 9.509 115.346 9.29119 116.266 9.29119C117.437 9.29119 118.387 9.66418 119.117 10.4102C119.852 11.1507 120.219 12.2016 120.219 13.5629V22H116.748V14.2489C116.748 13.552 116.563 13.0292 116.193 12.6808C115.822 12.3323 115.359 12.158 114.804 12.158C114.172 12.158 113.68 12.3595 113.326 12.7624C112.972 13.1599 112.795 13.6854 112.795 14.3388V22H109.422V14.1754C109.422 13.5601 109.245 13.0701 108.891 12.7053C108.542 12.3404 108.082 12.158 107.51 12.158C107.124 12.158 106.775 12.256 106.465 12.4521C106.16 12.6426 105.918 12.9122 105.738 13.2607C105.558 13.6037 105.468 14.0066 105.468 14.4695V22H101.989ZM129.641 9.45455V12.0682H122.085V9.45455H129.641ZM123.801 6.44886H127.28V18.1449C127.28 18.4661 127.329 18.7166 127.427 18.8963C127.525 19.0705 127.661 19.1931 127.835 19.2638C128.015 19.3346 128.222 19.37 128.456 19.37C128.62 19.37 128.783 19.3564 128.946 19.3292C129.11 19.2965 129.235 19.272 129.322 19.2557L129.869 21.8448C129.695 21.8993 129.45 21.9619 129.134 22.0327C128.818 22.1089 128.434 22.1552 127.983 22.1715C127.144 22.2042 126.409 22.0926 125.777 21.8366C125.151 21.5807 124.664 21.1832 124.315 20.6442C123.967 20.1051 123.795 19.4245 123.801 18.6023V6.44886ZM141.823 9.45455C141.73 8.52344 141.319 7.78291 140.589 7.23295C139.86 6.683 138.942 6.40803 137.837 6.40803C137.058 6.40803 136.372 6.54143 135.778 6.80824C135.19 7.07505 134.728 7.44531 134.39 7.91903C134.058 8.38731 133.892 8.92093 133.892 9.51989C133.892 9.96094 133.987 10.3475 134.178 10.6797C134.368 11.0118 134.624 11.2977 134.945 11.5373C135.272 11.7714 135.631 11.9729 136.024 12.1417C136.421 12.3105 136.821 12.4521 137.224 12.5664L138.988 13.0728C139.522 13.2198 140.056 13.4077 140.589 13.6364C141.123 13.8651 141.61 14.1536 142.051 14.5021C142.498 14.8452 142.854 15.2672 143.121 15.7681C143.393 16.2636 143.53 16.8598 143.53 17.5568C143.53 18.4498 143.298 19.253 142.835 19.9663C142.372 20.6796 141.708 21.2459 140.842 21.6651C139.977 22.079 138.939 22.2859 137.731 22.2859C136.593 22.2859 135.604 22.098 134.766 21.7223C133.927 21.3411 133.268 20.8157 132.789 20.146C132.31 19.4762 132.04 18.7003 131.981 17.8182H133.549C133.603 18.477 133.821 19.0352 134.202 19.4925C134.583 19.9499 135.079 20.2984 135.689 20.538C136.299 20.7721 136.979 20.8892 137.731 20.8892C138.564 20.8892 139.304 20.7504 139.952 20.4727C140.606 20.1895 141.117 19.7975 141.488 19.2965C141.863 18.7901 142.051 18.2021 142.051 17.5323C142.051 16.966 141.904 16.4923 141.61 16.1112C141.316 15.7246 140.905 15.4006 140.377 15.1392C139.854 14.8778 139.247 14.6464 138.555 14.445L136.554 13.8569C135.242 13.4648 134.224 12.9231 133.5 12.2315C132.776 11.54 132.413 10.6579 132.413 9.58523C132.413 8.68679 132.653 7.89725 133.132 7.21662C133.617 6.53054 134.27 5.99692 135.092 5.61577C135.92 5.22917 136.848 5.03587 137.878 5.03587C138.918 5.03587 139.838 5.22644 140.638 5.6076C141.439 5.98875 142.073 6.5142 142.541 7.18395C143.015 7.84825 143.268 8.60511 143.301 9.45455H141.823ZM151.844 9.45455V10.7205H145.857V9.45455H151.844ZM147.728 6.44886H149.19V18.7248C149.19 19.2475 149.28 19.6586 149.459 19.9581C149.639 20.2521 149.873 20.4618 150.162 20.587C150.45 20.7068 150.758 20.7667 151.085 20.7667C151.275 20.7667 151.439 20.7558 151.575 20.734C151.711 20.7068 151.831 20.6796 151.934 20.6523L152.244 21.9673C152.103 22.0218 151.929 22.0708 151.722 22.1143C151.515 22.1634 151.259 22.1879 150.954 22.1879C150.42 22.1879 149.906 22.0708 149.41 21.8366C148.92 21.6025 148.517 21.254 148.201 20.7912C147.886 20.3284 147.728 19.7539 147.728 19.0678V6.44886ZM163.118 17.2056V9.45455H164.571V22H163.118V19.9173H163.003C162.709 20.5598 162.244 21.0961 161.607 21.5263C160.969 21.951 160.191 22.1634 159.271 22.1634C158.47 22.1634 157.76 21.9891 157.139 21.6406C156.518 21.2867 156.031 20.7694 155.677 20.0888C155.323 19.4081 155.146 18.5723 155.146 17.5813V9.45455H156.6V17.4915C156.6 18.4716 156.888 19.2611 157.466 19.8601C158.043 20.4536 158.783 20.7504 159.687 20.7504C160.253 20.7504 160.798 20.6142 161.321 20.342C161.843 20.0697 162.274 19.6722 162.611 19.1495C162.949 18.6213 163.118 17.9734 163.118 17.2056ZM172.937 22.2614C171.908 22.2614 171.007 21.9891 170.234 21.4446C169.46 20.9001 168.856 20.1405 168.42 19.1658C167.99 18.1912 167.775 17.0559 167.775 15.7599C167.775 14.4695 167.99 13.3396 168.42 12.3704C168.856 11.3957 169.463 10.6388 170.242 10.0998C171.02 9.55528 171.927 9.28303 172.962 9.28303C173.724 9.28303 174.358 9.41915 174.865 9.69141C175.371 9.95821 175.777 10.2904 176.082 10.6879C176.387 11.0853 176.623 11.4719 176.792 11.8477H176.923V5.27273H178.385V22H176.964V19.6722H176.792C176.623 20.0534 176.384 20.4454 176.073 20.8484C175.763 21.2459 175.352 21.5807 174.84 21.853C174.334 22.1252 173.699 22.2614 172.937 22.2614ZM173.109 20.93C173.92 20.93 174.611 20.7095 175.183 20.2685C175.755 19.822 176.19 19.2094 176.49 18.4308C176.795 17.6467 176.947 16.7482 176.947 15.7354C176.947 14.7335 176.798 13.8487 176.498 13.081C176.199 12.3078 175.763 11.7034 175.191 11.2678C174.62 10.8267 173.925 10.6062 173.109 10.6062C172.27 10.6062 171.562 10.8349 170.985 11.2923C170.413 11.7442 169.978 12.3568 169.678 13.13C169.384 13.9032 169.237 14.7717 169.237 15.7354C169.237 16.7101 169.387 17.5895 169.686 18.3736C169.986 19.1577 170.421 19.7811 170.993 20.244C171.57 20.7013 172.275 20.93 173.109 20.93ZM183.539 26.7045C183.25 26.7045 182.98 26.6773 182.73 26.6229C182.48 26.5684 182.281 26.5085 182.134 26.4432L182.526 25.1609C183.021 25.3133 183.462 25.3678 183.849 25.3242C184.236 25.2861 184.579 25.1119 184.878 24.8015C185.178 24.4966 185.444 24.0283 185.679 23.3967L186.136 22.1225L181.521 9.45455H183.098L186.822 20.0806H186.936L190.661 9.45455H192.237L186.928 23.9847C186.705 24.5891 186.43 25.0928 186.103 25.4957C185.777 25.9041 185.398 26.2063 184.968 26.4023C184.543 26.6038 184.067 26.7045 183.539 26.7045Z" fill="black"/>
<path opacity="0.5" d="M60 9.8135V25L46 15.1865V0L60 9.8135Z" fill="#6938EF"/>
</svg>
